<?xml version="1.0" encoding="utf-8"?>
<!-- Generator: Adobe Illustrator 22.0.1, SVG Export Plug-In . SVG Version: 6.00 Build 0)  -->
<svg version="1.1" id="Layer_1" xmlns="http://www.w3.org/2000/svg" xmlns:xlink="http://www.w3.org/1999/xlink" x="0px" y="0px"
	 viewBox="0 0 960 560" style="enable-background:new 0 0 960 560;" xml:space="preserve">
<style type="text/css">
	.st0{fill:#D24417;}
	.st1{fill:#4F2711;}
	.st2{fill:#D0B19C;}
	.st3{fill:#DEC8BA;}
	.st4{fill:#FFFFFF;}
	.st5{fill:#733E00;}
</style>
<g>
	<path id="XMLID_24_" class="st0" d="M648.7,245c0,0,16,53.2,57.3,19.1c29.8-24.5,19.6-54.3,24-68.1c4.4-13.8,35.2-25.4,49-4.9
		s2.2,97.6-72.5,113.8c-74.7,16.1-94.3-13.2-94.3-13.2L648.7,245z"/>
	<path id="XMLID_23_" class="st0" d="M286.1,313.2c0,0-48.9-26.3-54.1,27c-3.7,38.4,24.5,52.2,31.1,65.1c6.6,12.9-7,42.8-31.2,38.1
		c-24.2-4.7-70.6-67.4-29.2-131.7c41.4-64.3,76-57.3,76-57.3L286.1,313.2z"/>
	<g id="XMLID_22_">
		<path class="st0" d="M367.2,425.1c0,17.9,6.5,31.9,17.3,41.9l-9,31.9c-3.2,0.9-5.1,8.9-5.1,10c0,3.1,15.3,5.6,34.3,5.6
			c18.9,0,34.3-2.5,34.3-5.6c0-0.9-1.2-8.8-3.4-9.5l-3.8-14.1c2.5,0.2,5,0.3,7.6,0.3h32.6c2.3,0,4.6-0.1,6.9-0.2l-4,15.6
			c-2.2,0.7-3.4,7.6-3.4,8.5c0,3.1,15.3,5.7,34.3,5.7c18.9,0,34.3-2.5,34.3-5.7c0-1.1-1.9-8.1-5.1-9l-9-32.7
			c11.3-10.1,18.1-24.3,18.1-42.7"/>
	</g>
	<path id="XMLID_15_" class="st0" d="M652.5,284.6C652.5,392.5,565,480,457,480c-107.9,0-195.4-87.5-195.4-195.4
		c0-107.9,87.5-195.4,195.4-195.4C565,89.2,652.5,176.7,652.5,284.6z"/>
	<path id="XMLID_5_" class="st1" d="M388,108.1c-28.7,10.5-49.5,31.4-49.5,31.4l-31.8-91.8"/>
	<path id="XMLID_6_" class="st1" d="M577.7,153.7c-15.3-26.4-39.5-43.3-39.5-43.3l84.9-47.2"/>
	<path id="XMLID_4_" class="st1" d="M622.8,63.3c-9,8.9-20.4,13.6-20.4,13.6l28.2,24.4"/>
	<path id="XMLID_3_" class="st1" d="M389.6,146.6c0,0,3.1-40,73.9-40.3c70.7-0.2,66.5,38.3,66.5,38.3s-18.7-17.5-70.2-16.8
		C409.8,128.6,389.6,146.6,389.6,146.6z"/>
	<g>
		<path id="XMLID_2_" class="st2" d="M496,424.7c-20.8-13.6-47.8-15.6-71.5-4.9c-15.5,7-25.9,17.4-34.4,28.8
			c-3.4,4.6-5.9,9.5-8.5,14.4h148.3C522.5,448.6,512.2,435.4,496,424.7z"/>
		<path id="XMLID_1_" class="st3" d="M455.3,425.2c-7.3-0.7-14.8-1-20.4-6.9c-3.9-4.2-4.2-6.8,0.4-10.4c7.8-6.3,17.1-7.8,26.7-5.9
			c3.6,0.7,7.5,1,10.8,3.2c3.1,2,6.7,4.3,6.4,8.1c-0.3,4.3-3.8,7.2-7.8,8.8C466.2,424.1,461,425.7,455.3,425.2z"/>
	</g>
</g>
<g id="Mouth">
	<path id="Tooth_LT" class="st4" d="M390.4,377.9c0-0.5-6-24.8-12.5-24.7c-6.6,0.1-11.8,13.9-11.6,25.1L390.4,377.9z"/>
	<path id="Tooth_RB" class="st4" d="M519.9,380.9c0.2,11.6-4.9,26-11.5,26.1c-6.6,0.1-12.3-14-12.5-25.6L519.9,380.9z"/>
	<path id="Tooth_LT_1_" class="st4" d="M415.4,380.9c0.2,11.6-4.9,26-11.6,26.1c-6.6,0.1-12.3-14-12.5-25.6L415.4,380.9z"/>
	<path id="Tooth_RT_1_" class="st4" d="M546.9,378.9c-0.2-11.2-5.8-24.8-12.5-24.7c-6.6,0.1-11.8,13.9-11.6,25.1L546.9,378.9z"/>
	<g id="XMLID_14_">
		<g>
			<path class="st5" d="M348.8,378.2c30.1,2.2,60.2,4.9,90.3,6.7c13.7,0.8,27.7-0.5,41.4-0.8c11.5-0.3,23-1.4,34.4-2.2
				c17-1.2,34-2.4,51-3.7c1.9-0.1,1.9-3.1,0-3c-27.1,1.9-54.3,4.8-81.5,5.8c-14.6,0.5-29.5,1.4-44.1,1c-14.2-0.4-28.6-2.1-42.8-3.2
				c-16.3-1.2-32.5-2.4-48.8-3.6C346.9,375.1,346.9,378.1,348.8,378.2L348.8,378.2z"/>
		</g>
	</g>
</g>
<g id="EYE">
	<path id="XMLID_13_" class="st4" d="M556,234.8c0,53.1-43.1,96.2-96.2,96.2c-53.1,0-96.2-43.1-96.2-96.2
		c0-53.1,43.1-96.2,96.2-96.2C512.9,138.6,556,181.7,556,234.8z"/>
	<path id="XMLID_12_" d="M522.6,234.8c0,34.7-28.1,62.8-62.8,62.8c-34.7,0-62.8-28.1-62.8-62.8c0-34.7,28.1-62.8,62.8-62.8
		C494.5,172,522.6,200.1,522.6,234.8z"/>
	<path id="XMLID_11_" class="st4" d="M489.9,221.7c0,16.6-13.5,30.1-30.1,30.1c-16.6,0-30.1-13.5-30.1-30.1
		c0-16.6,13.5-30.1,30.1-30.1C476.4,191.6,489.9,205.1,489.9,221.7z"/>
	<path id="XMLID_9_" class="st4" d="M506.8,258.6c0,6.1-5,11.1-11.1,11.1c-6.1,0-11.1-5-11.1-11.1c0-6.1,5-11.1,11.1-11.1
		C501.8,247.4,506.8,252.4,506.8,258.6z"/>
</g>
</svg>
